<svg xmlns="http://www.w3.org/2000/svg" width="507.931" height="93.998" viewBox="6.64 6.167 507.931 93.998"><path d="M36.622 40.858c2.821-3.697 5.913-5.982 11.356-5.982 8.534 0 14.449 7.797 14.449 19.02 0 10.819-6.115 18.685-14.518 18.685-6.451 0-9.273-3.498-11.289-5.983v11.021h4.301v5.713H26.064v-5.713h3.502V41.396h-3.502v-5.714h10.559v5.176zm9.141 25.805c5.711 0 8.938-4.638 8.938-12.969 0-8.064-3.227-12.904-8.667-12.904-5.578 0-9.478 5.175-9.478 12.5 0 8.198 3.628 13.373 9.207 13.373zm20.966-30.981h10.356v24.529c0 4.168 2.285 6.722 6.115 6.722 4.838 0 9.272-5.444 9.272-9.744V41.396h-4.167v-5.714H99.53v30.377h4.166v5.712H92.474v-5.646c-2.553 3.024-4.233 4.166-6.384 5.176-1.745.806-3.563 1.277-5.511 1.277-6.316 0-10.552-4.438-10.552-11.022v-20.16h-3.3l.002-5.714zm53.231 8.065c1.95-4.301 4.166-8.871 10.484-8.871 1.275 0 1.947.135 3.428.473v6.786c-1.748-.404-2.488-.537-3.495-.537-8.063 0-10.417 7.997-10.417 10.751v13.71h3.3v5.712h-13.724v-5.712h3.366V41.396h-3.229v-5.714h10.287v8.065zm37.372 23.186c-3.228 2.89-6.319 5.646-12.1 5.646-6.786 0-11.691-4.57-11.691-10.82 0-2.754.939-5.107 2.688-6.99 2.757-2.821 6.722-4.1 16.331-5.173l4.704-.538v-2.286c0-4.167-2.688-6.451-7.595-6.451-4.503 0-6.584 1.68-7.393 5.981h-7.46c.539-3.831 1.411-5.714 3.496-7.659 2.754-2.489 6.719-3.766 11.826-3.766 8.939 0 14.181 4.434 14.181 11.962V66.06h3.501v5.712h-10.488v-4.839zm-.068-13.44l-3.158.469c-6.586 1.009-9.342 1.949-11.155 3.765-.94.939-1.547 2.352-1.547 3.427 0 3.36 2.822 6.116 6.249 6.116 4.907 0 9.611-4.37 9.611-8.939v-4.838zm16.457-26.122h6.991v8.311h7.264v5.714h-7.264v20.767c0 3.226 1.478 4.435 5.442 4.435.537 0 1.142 0 2.62-.136v5.445c-1.411.064-4.099.336-5.646.336-6.586 0-9.409-2.287-9.409-7.662V41.396h-4.44v-5.714h4.44l.002-8.311zm60.725 44.4h-10.215v-6.384c-2.89 4.503-6.787 7.056-12.097 7.056-6.72 0-11.626-4.636-11.626-10.887 0-6.854 6.049-10.282 20.295-11.627.472-.065 1.95-.201 3.36-.334v-3.697c0-4.1-3.159-6.653-8.133-6.653-5.24 0-7.594 1.748-8.669 6.386h-5.443c.808-3.631 1.882-5.512 4.033-7.395 2.419-2.016 5.778-3.09 9.678-3.09 7.391 0 13.71 3.426 13.71 12.5v19.892h5.105l.002 4.233zM224.164 53.29l-3.292.404c-11.021 1.342-14.719 3.359-14.719 7.93 0 3.764 3.293 6.854 7.459 6.854 6.386 0 10.552-6.049 10.552-9.342V53.29zm11.952-17.742h9.146v25.068c0 4.639 2.485 7.659 6.316 7.659 2.484 0 5.041-1.209 7.258-3.358 3.023-3.092 3.831-5.912 3.831-13.24V39.849h-4.173v-4.301h9.348v31.988h4.906v4.234h-10.217v-7.057c-2.149 3.021-5.645 7.931-12.9 7.931-5.714 0-9.544-4.435-9.544-11.089V39.849h-3.973v-4.301h.002zm44.091-8.432h5.173v8.432h7.938v4.301h-7.938v23.655c0 4.57 1.077 4.974 6.653 4.906l1.882-.068v4.033c-2.082.133-4.567.203-6.247.203-5.713 0-7.461-1.682-7.461-7.324V39.849h-5.383v-4.301h5.383v-8.432zm50.711-4.167h9.616v28.594l15.994-15.995h5.651v4.301h-3.297l-8.604 8.064 11.56 19.623h3.165v4.234h-6.526l-11.692-20.565-6.25 5.917v10.414h4.44v4.234h-13.258v-4.234h3.643V27.184h-4.441v-4.235h-.001zm38.289 0h9.481v44.586h4.041v4.234h-13.588v-4.234h3.574V27.184h-3.51l.002-4.235zm17.077 12.599h9.751v31.988h5.175v4.234h-14.994v-4.234h4.646V39.849h-4.578v-4.301zm3.301-12.252h6.113v6.119h-6.113v-6.119zm24.797 19.106c1.611-2.484 4.838-7.46 11.425-7.46 4.771 0 7.525 2.487 8.4 7.527 1.411-2.419 2.082-3.291 3.427-4.435 2.352-2.085 4.905-3.093 7.729-3.093 5.509 0 8.735 3.562 8.735 9.812v22.781h4.172v4.234h-9.345V46.636c0-5.038-1.681-7.326-5.176-7.326-6.25 0-9.543 7.528-9.543 9.947v18.279h4.374v4.234h-9.55V45.83c0-4.504-1.681-6.521-5.176-6.521-5.576 0-9.543 6.924-9.543 10.216v18.011h4.308v4.234h-13.924v-4.234h4.442V39.849h-5.242v-4.301h10.484v6.854h.003zm80.764 29.369h-9.413v-6.384c-2.89 4.503-6.788 7.056-12.098 7.056-6.721 0-11.626-4.636-11.626-10.887 0-6.854 6.048-10.282 20.297-11.627.469-.065 1.948-.201 3.358-.334v-3.697c0-4.1-3.157-6.653-8.132-6.653-5.243 0-7.595 1.748-8.67 6.386h-5.441c.805-3.631 1.881-5.512 4.03-7.395 2.42-2.016 5.778-3.09 9.679-3.09 7.393 0 13.709 3.426 13.709 12.5v19.892h4.307v4.233zm-9.482-18.481l-3.294.404c-11.021 1.342-14.716 3.359-14.716 7.93 0 3.764 3.292 6.854 7.458 6.854 6.386 0 10.552-6.049 10.552-9.342V53.29z" fill="#FFF"/><path fill="#FFF" d="M314.701 34.963a18.756 18.756 0 0 0-1.842-.091v5.08c.445.001.897.022 1.345.066a13.64 13.64 0 0 1 9.273 4.954 13.648 13.648 0 0 1 3.054 10.062 13.676 13.676 0 0 1-13.648 12.396c-.452 0-.911-.021-1.365-.066-7.088-.697-12.396-6.693-12.394-13.673h-5.082c-.012 9.573 7.253 17.771 16.979 18.728.626.063 1.247.092 1.862.092 9.563 0 17.751-7.262 18.705-16.979 1.016-10.344-6.543-19.553-16.887-20.569z"/><circle fill="#FFF" cx="303.963" cy="37.72" r="4.792"/><path fill="none" stroke="#FFF" stroke-width="2.131" stroke-miterlimit="10" d="M7.705 7.233h505.8V99.1H7.705z"/></svg>