<?xml version="1.0" encoding="utf-8"?>
<!-- Generator: Adobe Illustrator 16.0.0, SVG Export Plug-In . SVG Version: 6.00 Build 0)  -->
<!DOCTYPE svg PUBLIC "-//W3C//DTD SVG 1.1//EN" "http://www.w3.org/Graphics/SVG/1.1/DTD/svg11.dtd">
<svg version="1.1" id="Ebene_1" xmlns="http://www.w3.org/2000/svg" xmlns:xlink="http://www.w3.org/1999/xlink" x="0px" y="0px"
	 width="507.931px" height="93.998px" viewBox="6.64 6.167 507.931 93.998" enable-background="new 6.64 6.167 507.931 93.998"
	 xml:space="preserve">
<g>
	<path fill="#FFFFFF" d="M36.622,40.858c2.821-3.697,5.913-5.982,11.356-5.982c8.534,0,14.449,7.797,14.449,19.02
		c0,10.819-6.115,18.685-14.518,18.685c-6.451,0-9.273-3.498-11.289-5.983v11.021h4.301v5.713H26.064v-5.713h3.502V41.396h-3.502
		v-5.714h10.559V40.858z M45.763,66.663c5.711,0,8.938-4.638,8.938-12.969c0-8.064-3.227-12.904-8.667-12.904
		c-5.578,0-9.478,5.175-9.478,12.5C36.556,61.488,40.184,66.663,45.763,66.663z"/>
	<path fill="#FFFFFF" d="M66.729,35.682h10.356v24.529c0,4.168,2.285,6.722,6.115,6.722c4.838,0,9.272-5.444,9.272-9.744V41.396
		h-4.167v-5.714H99.53v30.377h4.166v5.712H92.474v-5.646c-2.553,3.024-4.233,4.166-6.384,5.176
		c-1.745,0.806-3.563,1.277-5.511,1.277c-6.316,0-10.552-4.438-10.552-11.022v-20.16h-3.3L66.729,35.682L66.729,35.682z"/>
	<path fill="#FFFFFF" d="M119.96,43.747c1.95-4.301,4.166-8.871,10.484-8.871c1.275,0,1.947,0.135,3.428,0.473v6.786
		c-1.748-0.404-2.488-0.537-3.495-0.537c-8.063,0-10.417,7.997-10.417,10.751v13.71h3.3v5.712h-13.724v-5.712h3.366V41.396h-3.229
		v-5.714h10.287V43.747z"/>
	<path fill="#FFFFFF" d="M157.332,66.933c-3.228,2.89-6.319,5.646-12.1,5.646c-6.786,0-11.691-4.57-11.691-10.82
		c0-2.754,0.939-5.107,2.688-6.99c2.757-2.821,6.722-4.1,16.331-5.173l4.704-0.538v-2.286c0-4.167-2.688-6.451-7.595-6.451
		c-4.503,0-6.584,1.68-7.393,5.981h-7.46c0.539-3.831,1.411-5.714,3.496-7.659c2.754-2.489,6.719-3.766,11.826-3.766
		c8.939,0,14.181,4.434,14.181,11.962v19.221h3.501v5.712h-10.488V66.933z M157.264,53.493l-3.158,0.469
		c-6.586,1.009-9.342,1.949-11.155,3.765c-0.94,0.939-1.547,2.352-1.547,3.427c0,3.36,2.822,6.116,6.249,6.116
		c4.907,0,9.611-4.37,9.611-8.939V53.493L157.264,53.493z"/>
	<path fill="#FFFFFF" d="M173.721,27.371h6.991v8.311h7.264v5.714h-7.264v20.767c0,3.226,1.478,4.435,5.442,4.435
		c0.537,0,1.142,0,2.62-0.136v5.445c-1.411,0.064-4.099,0.336-5.646,0.336c-6.586,0-9.409-2.287-9.409-7.662V41.396h-4.44v-5.714
		h4.44L173.721,27.371L173.721,27.371z"/>
	<path fill="#FFFFFF" d="M234.446,71.771h-10.215v-6.384c-2.89,4.503-6.787,7.056-12.097,7.056c-6.72,0-11.626-4.636-11.626-10.887
		c0-6.854,6.049-10.282,20.295-11.627c0.472-0.065,1.95-0.201,3.36-0.334v-3.697c0-4.1-3.159-6.653-8.133-6.653
		c-5.24,0-7.594,1.748-8.669,6.386h-5.443c0.808-3.631,1.882-5.512,4.033-7.395c2.419-2.016,5.778-3.09,9.678-3.09
		c7.391,0,13.71,3.426,13.71,12.5v19.892h5.105L234.446,71.771L234.446,71.771z M224.164,53.29l-3.292,0.404
		c-11.021,1.342-14.719,3.359-14.719,7.93c0,3.764,3.293,6.854,7.459,6.854c6.386,0,10.552-6.049,10.552-9.342V53.29L224.164,53.29z
		"/>
	<path fill="#FFFFFF" d="M236.116,35.548h9.146v25.068c0,4.639,2.485,7.659,6.316,7.659c2.484,0,5.041-1.209,7.258-3.358
		c3.023-3.092,3.831-5.912,3.831-13.24V39.849h-4.173v-4.301h9.348v31.988h4.906v4.234h-10.217v-7.057
		c-2.149,3.021-5.645,7.931-12.9,7.931c-5.714,0-9.544-4.435-9.544-11.089V39.849h-3.973v-4.301H236.116z"/>
	<path fill="#FFFFFF" d="M280.207,27.116h5.173v8.432h7.938v4.301h-7.938v23.655c0,4.57,1.077,4.974,6.653,4.906l1.882-0.068v4.033
		c-2.082,0.133-4.567,0.203-6.247,0.203c-5.713,0-7.461-1.682-7.461-7.324V39.849h-5.383v-4.301h5.383V27.116z"/>
	<path fill="#FFFFFF" d="M330.918,22.949h9.616v28.594l15.994-15.995h5.651v4.301h-3.297l-8.604,8.064l11.56,19.623h3.165v4.234
		h-6.526l-11.692-20.565l-6.25,5.917v10.414h4.44v4.234h-13.258v-4.234h3.643V27.184h-4.441V22.949L330.918,22.949z"/>
	<path fill="#FFFFFF" d="M369.207,22.949h9.481v44.586h4.041v4.234h-13.588v-4.234h3.574V27.184h-3.51L369.207,22.949
		L369.207,22.949z"/>
	<path fill="#FFFFFF" d="M386.284,35.548h9.751v31.988h5.175v4.234h-14.994v-4.234h4.646V39.849h-4.578V35.548L386.284,35.548z
		 M389.585,23.296h6.113v6.119h-6.113V23.296z"/>
	<path fill="#FFFFFF" d="M414.382,42.402c1.611-2.484,4.838-7.46,11.425-7.46c4.771,0,7.525,2.487,8.4,7.527
		c1.411-2.419,2.082-3.291,3.427-4.435c2.352-2.085,4.905-3.093,7.729-3.093c5.509,0,8.735,3.562,8.735,9.812v22.781h4.172v4.234
		h-9.345V46.636c0-5.038-1.681-7.326-5.176-7.326c-6.25,0-9.543,7.528-9.543,9.947v18.279h4.374v4.234h-9.55V45.83
		c0-4.504-1.681-6.521-5.176-6.521c-5.576,0-9.543,6.924-9.543,10.216v18.011h4.308v4.234h-13.924v-4.234h4.442V39.849h-5.242
		v-4.301h10.484v6.854H414.382z"/>
	<path fill="#FFFFFF" d="M495.146,71.771h-9.413v-6.384c-2.89,4.503-6.788,7.056-12.098,7.056c-6.721,0-11.626-4.636-11.626-10.887
		c0-6.854,6.048-10.282,20.297-11.627c0.469-0.065,1.948-0.201,3.358-0.334v-3.697c0-4.1-3.157-6.653-8.132-6.653
		c-5.243,0-7.595,1.748-8.67,6.386h-5.441c0.805-3.631,1.881-5.512,4.03-7.395c2.42-2.016,5.778-3.09,9.679-3.09
		c7.393,0,13.709,3.426,13.709,12.5v19.892h4.307V71.771L495.146,71.771z M485.664,53.29l-3.294,0.404
		c-11.021,1.342-14.716,3.359-14.716,7.93c0,3.764,3.292,6.854,7.458,6.854c6.386,0,10.552-6.049,10.552-9.342V53.29z"/>
</g>
<path fill="#FFFFFF" d="M314.701,34.963c-0.619-0.061-1.232-0.091-1.842-0.091v5.08c0.445,0.001,0.897,0.022,1.345,0.066
	c3.652,0.358,6.945,2.118,9.273,4.954c2.329,2.837,3.413,6.41,3.054,10.062c-0.692,7.067-6.562,12.396-13.648,12.396
	c-0.452,0-0.911-0.021-1.365-0.066c-7.088-0.697-12.396-6.693-12.394-13.673h-5.082c-0.012,9.573,7.253,17.771,16.979,18.728
	c0.626,0.063,1.247,0.092,1.862,0.092c9.563,0,17.751-7.262,18.705-16.979C332.604,45.188,325.045,35.979,314.701,34.963z"/>
<circle fill="#FFFFFF" cx="303.963" cy="37.72" r="4.792"/>
<rect x="7.705" y="7.233" fill="none" stroke="#FFFFFF" stroke-width="2.1313" stroke-miterlimit="10" width="505.8" height="91.867"/>
</svg>
